<svg width="624" height="853" viewBox="0 0 624 853" fill="none" xmlns="http://www.w3.org/2000/svg">
<g filter="url(#filter0_f_202_16461)">
<rect x="90" y="216" width="440" height="547" rx="30" fill="url(#paint0_linear_202_16461)"/>
</g>
<path d="M106.034 257.996C106.308 241.43 119.96 228.222 136.526 228.496L491.301 234.366C507.868 234.64 521.075 248.292 520.801 264.859L513.263 720.418C512.989 736.985 499.338 750.192 482.771 749.918L127.996 744.048C111.43 743.774 98.2222 730.122 98.4963 713.556L106.034 257.996Z" fill="url(#paint1_linear_202_16461)"/>
<circle cx="345.5" cy="13.5" r="11.5" fill="#8D30F2"/>
<circle cx="349.5" cy="11.5" r="10.5" stroke="black" stroke-width="2"/>
<circle cx="150" cy="108" r="18" fill="#8D30F2"/>
<circle cx="146" cy="106" r="17" stroke="black" stroke-width="2"/>
<circle cx="234" cy="263" r="17" fill="#8D30F2" stroke="black" stroke-width="2"/>
<path d="M162.48 211.839C156.056 237.533 169.536 259.285 177.078 266.949H141.677C125.035 252.642 122.82 224.248 123.794 211.839H162.48Z" fill="#4646F9"/>
<path d="M156.64 206C150.217 231.693 163.696 253.445 171.239 261.109H135.837C119.195 246.803 116.981 218.409 117.954 206H156.64Z" stroke="black" stroke-width="2"/>
<path d="M163.575 280.087C146.64 266.949 139.001 242.01 137.297 231.182L102.261 243.591C108.1 268.117 128.052 283.737 137.297 288.482L163.575 280.087Z" fill="#4646F9"/>
<path d="M157.735 274.248C140.801 261.109 133.161 236.17 131.458 225.343L96.4214 237.752C102.261 262.277 122.212 277.898 131.458 282.642L157.735 274.248Z" stroke="black" stroke-width="2"/>
<path d="M153.356 292.861C141.385 290.526 131.58 269.747 128.173 259.65L107.005 272.423C111.093 294.029 125.01 303.81 131.458 306L153.356 292.861Z" fill="#4646F9"/>
<path d="M147.516 287.022C135.546 284.686 125.74 263.908 122.334 253.81L101.166 266.584C105.254 288.19 119.171 297.971 125.619 300.161L147.516 287.022Z" stroke="black" stroke-width="2"/>
<path d="M455.374 20.115L465.959 9.19922L508.389 28.9998L593.956 89.1089L606.331 111.385L595.368 122.348C595.37 122.583 595.37 122.818 595.37 123.053H536.99C536.99 115.248 535.143 107.554 531.601 100.6C528.058 93.646 522.92 87.6289 516.606 83.0406C510.293 78.4524 502.983 75.4233 495.275 74.2008C487.567 72.9784 479.679 73.5974 472.255 76.0072L454.229 20.4796C454.61 20.3559 454.992 20.2344 455.374 20.115Z" fill="#9063C0"/>
<path d="M449.004 17.2195L459.589 6.30371L502.019 26.1043L587.586 86.2134L599.962 108.489L588.998 119.452C589 119.687 589.001 119.922 589.001 120.157H530.62C530.62 112.353 528.774 104.659 525.231 97.7047C521.688 90.7505 516.55 84.7334 510.237 80.1451C503.923 75.5569 496.614 72.5278 488.905 71.3053C481.197 70.0829 473.309 70.7019 465.886 73.1117L447.86 17.5841C448.241 17.4604 448.622 17.3389 449.004 17.2195Z" stroke="black" stroke-width="2"/>
<path d="M606.685 111.738C606.685 94.7219 602.658 77.9471 594.934 62.7849C587.21 47.6228 576.007 34.5037 562.242 24.4999C548.477 14.4962 532.54 7.8918 515.734 5.22655C498.927 2.56131 481.729 3.91088 465.544 9.16497L483.57 64.6926C490.993 62.2828 498.881 61.6638 506.59 62.8862C514.298 64.1087 521.607 67.1378 527.921 71.726C534.234 76.3143 539.372 82.3314 542.915 89.2856C546.458 96.2398 548.305 103.934 548.305 111.738H606.685Z" fill="#C28AFF"/>
<mask id="path-17-inside-1_202_16461" fill="white">
<path d="M600.315 108.843C600.315 91.8264 596.288 75.0516 588.564 59.8894C580.84 44.7273 569.637 31.6082 555.872 21.6044C542.107 11.6007 526.17 4.99629 509.364 2.33104C492.557 -0.3342 475.359 1.01538 459.174 6.26946L477.2 61.7971C484.623 59.3873 492.511 58.7683 500.22 59.9907C507.928 61.2132 515.237 64.2423 521.551 68.8305C527.864 73.4188 533.002 79.4359 536.545 86.3901C540.088 93.3443 541.935 101.038 541.935 108.843H600.315Z"/>
</mask>
<path d="M600.315 108.843C600.315 91.8264 596.288 75.0516 588.564 59.8894C580.84 44.7273 569.637 31.6082 555.872 21.6044C542.107 11.6007 526.17 4.99629 509.364 2.33104C492.557 -0.3342 475.359 1.01538 459.174 6.26946L477.2 61.7971C484.623 59.3873 492.511 58.7683 500.22 59.9907C507.928 61.2132 515.237 64.2423 521.551 68.8305C527.864 73.4188 533.002 79.4359 536.545 86.3901C540.088 93.3443 541.935 101.038 541.935 108.843H600.315Z" stroke="black" stroke-width="4" mask="url(#path-17-inside-1_202_16461)"/>
<path fill-rule="evenodd" clip-rule="evenodd" d="M377.997 88.7276C384.222 68.2943 396.375 50.17 412.915 36.6531L449.858 81.8578C442.272 88.0574 436.698 96.3701 433.843 105.742C431.754 112.597 431.189 119.793 432.148 126.833L444.739 122.986L433.684 134.041C433.729 134.194 433.774 134.346 433.82 134.499L377.948 151.426C371.754 130.983 371.771 109.161 377.997 88.7276Z" fill="#663CF7"/>
<path d="M412.915 36.6531L413.302 36.3367L412.986 35.9495L412.599 36.2659L412.915 36.6531ZM377.997 88.7276L377.518 88.5819L377.997 88.7276ZM449.858 81.8578L450.174 82.2449L450.562 81.9285L450.245 81.5414L449.858 81.8578ZM433.843 105.742L433.364 105.596L433.843 105.742ZM432.148 126.833L431.653 126.901L431.732 127.483L432.294 127.311L432.148 126.833ZM444.739 122.986L445.092 123.339L444.593 122.508L444.739 122.986ZM433.684 134.041L433.33 133.687L433.121 133.897L433.204 134.181L433.684 134.041ZM433.82 134.499L433.965 134.977L434.444 134.832L434.299 134.354L433.82 134.499ZM377.948 151.426L377.469 151.571L377.614 152.049L378.093 151.904L377.948 151.426ZM412.599 36.2659C395.982 49.8455 383.773 68.0539 377.518 88.5819L378.475 88.8733C384.671 68.5348 396.768 50.4945 413.231 37.0402L412.599 36.2659ZM450.245 81.5414L413.302 36.3367L412.528 36.9695L449.471 82.1742L450.245 81.5414ZM434.321 105.888C437.147 96.6106 442.665 88.3818 450.174 82.2449L449.542 81.4706C441.879 87.7329 436.248 96.1297 433.364 105.596L434.321 105.888ZM432.643 126.766C431.694 119.797 432.253 112.674 434.321 105.888L433.364 105.596C431.255 112.521 430.684 119.789 431.653 126.901L432.643 126.766ZM432.294 127.311L444.885 123.464L444.593 122.508L432.002 126.355L432.294 127.311ZM444.385 122.632L433.33 133.687L434.037 134.394L445.092 123.339L444.385 122.632ZM434.299 134.354C434.253 134.203 434.208 134.052 434.164 133.9L433.204 134.181C433.249 134.335 433.295 134.49 433.342 134.644L434.299 134.354ZM378.093 151.904L433.965 134.977L433.675 134.02L377.803 150.947L378.093 151.904ZM377.518 88.5819C371.264 109.11 371.247 131.033 377.469 151.571L378.426 151.281C372.262 130.932 372.279 109.212 378.475 88.8733L377.518 88.5819Z" fill="black"/>
<mask id="path-20-inside-2_202_16461" fill="white">
<path d="M424.229 25.3385C407.69 38.8555 395.537 56.9798 389.311 77.413C383.086 97.8463 383.069 119.668 389.262 140.111L445.135 123.184C442.294 113.808 442.302 103.799 445.157 94.4274C448.012 85.0556 453.586 76.7428 461.173 70.5432L424.229 25.3385Z"/>
</mask>
<path d="M424.229 25.3385C407.69 38.8555 395.537 56.9798 389.311 77.413C383.086 97.8463 383.069 119.668 389.262 140.111L445.135 123.184C442.294 113.808 442.302 103.799 445.157 94.4274C448.012 85.0556 453.586 76.7428 461.173 70.5432L424.229 25.3385Z" fill="#9130F4" stroke="black" stroke-width="4" mask="url(#path-20-inside-2_202_16461)"/>
<path fill-rule="evenodd" clip-rule="evenodd" d="M527.327 139.047L538.438 127.936L543.035 142.433L540.002 144.233L580.969 160.995C573.823 178.461 562.219 193.745 547.317 205.322C532.414 216.899 514.735 224.363 496.044 226.967C477.354 229.572 458.308 227.227 440.807 220.167C423.307 213.106 407.966 201.577 396.317 186.731L397.534 185.775L407.966 175.67L409.507 176.381L442.245 150.691C447.588 157.501 454.624 162.788 462.651 166.027C470.677 169.265 479.413 170.341 487.986 169.146C496.558 167.951 504.667 164.528 511.502 159.218C518.337 153.909 523.659 146.898 526.937 138.888L527.327 139.047Z" fill="#8D8A95"/>
<path d="M538.438 127.936L538.915 127.785L538.666 127.001L538.085 127.582L538.438 127.936ZM527.327 139.047L527.138 139.51L527.445 139.636L527.68 139.401L527.327 139.047ZM543.035 142.433L543.29 142.863L543.631 142.66L543.511 142.282L543.035 142.433ZM540.002 144.233L539.747 143.804L538.884 144.316L539.813 144.696L540.002 144.233ZM580.969 160.995L581.432 161.184L581.621 160.722L581.159 160.532L580.969 160.995ZM547.317 205.322L547.623 205.717L547.317 205.322ZM496.044 226.967L495.975 226.472L496.044 226.967ZM440.807 220.167L440.995 219.703L440.807 220.167ZM396.317 186.731L396.008 186.337L395.615 186.646L395.923 187.039L396.317 186.731ZM397.534 185.775L397.843 186.169L397.864 186.153L397.882 186.134L397.534 185.775ZM407.966 175.67L408.176 175.216L407.864 175.072L407.618 175.311L407.966 175.67ZM409.507 176.381L409.297 176.835L409.575 176.963L409.815 176.774L409.507 176.381ZM442.245 150.691L442.639 150.383L442.33 149.989L441.937 150.298L442.245 150.691ZM462.651 166.027L462.464 166.491L462.651 166.027ZM487.986 169.146L487.917 168.651L487.986 169.146ZM511.502 159.218L511.809 159.613L511.502 159.218ZM526.937 138.888L527.126 138.425L526.663 138.236L526.474 138.698L526.937 138.888ZM538.085 127.582L526.973 138.694L527.68 139.401L538.792 128.29L538.085 127.582ZM543.511 142.282L538.915 127.785L537.962 128.087L542.558 142.584L543.511 142.282ZM540.258 144.663L543.29 142.863L542.78 142.003L539.747 143.804L540.258 144.663ZM539.813 144.696L580.78 161.458L581.159 160.532L540.192 143.771L539.813 144.696ZM580.506 160.806C573.394 178.19 561.843 193.404 547.01 204.927L547.623 205.717C562.595 194.086 574.253 178.731 581.432 161.184L580.506 160.806ZM547.01 204.927C532.176 216.45 514.579 223.879 495.975 226.472L496.113 227.463C514.89 224.846 532.652 217.347 547.623 205.717L547.01 204.927ZM495.975 226.472C477.372 229.065 458.414 226.731 440.995 219.703L440.62 220.63C458.202 227.724 477.337 230.08 496.113 227.463L495.975 226.472ZM440.995 219.703C423.575 212.675 408.306 201.199 396.71 186.422L395.923 187.039C407.627 201.954 423.039 213.537 440.62 220.63L440.995 219.703ZM396.625 187.124L397.843 186.169L397.226 185.382L396.008 186.337L396.625 187.124ZM397.882 186.134L408.314 176.029L407.618 175.311L397.187 185.416L397.882 186.134ZM407.757 176.124L409.297 176.835L409.716 175.927L408.176 175.216L407.757 176.124ZM409.815 176.774L442.554 151.085L441.937 150.298L409.198 175.987L409.815 176.774ZM441.852 151C447.249 157.878 454.356 163.219 462.464 166.491L462.838 165.563C454.893 162.358 447.928 157.123 442.639 150.383L441.852 151ZM462.464 166.491C470.572 169.762 479.396 170.848 488.055 169.641L487.917 168.651C479.431 169.834 470.783 168.769 462.838 165.563L462.464 166.491ZM488.055 169.641C496.714 168.435 504.904 164.977 511.809 159.613L511.195 158.824C504.429 164.08 496.402 167.468 487.917 168.651L488.055 169.641ZM511.809 159.613C518.713 154.25 524.089 147.169 527.399 139.077L526.474 138.698C523.23 146.628 517.961 153.567 511.195 158.824L511.809 159.613ZM526.747 139.35L527.138 139.51L527.516 138.585L527.126 138.425L526.747 139.35Z" fill="black"/>
<mask id="path-23-inside-3_202_16461" fill="white">
<path d="M407.631 175.416C419.281 190.262 434.622 201.791 452.122 208.852C469.622 215.913 488.669 218.258 507.359 215.653C526.049 213.048 543.729 205.584 558.631 194.008C573.534 182.431 585.138 167.146 592.284 149.681L538.251 127.573C534.974 135.584 529.652 142.594 522.816 147.904C515.981 153.214 507.872 156.637 499.3 157.832C490.728 159.026 481.992 157.951 473.966 154.712C465.939 151.474 458.903 146.186 453.56 139.377L407.631 175.416Z"/>
</mask>
<path d="M407.631 175.416C419.281 190.262 434.622 201.791 452.122 208.852C469.622 215.913 488.669 218.258 507.359 215.653C526.049 213.048 543.729 205.584 558.631 194.008C573.534 182.431 585.138 167.146 592.284 149.681L538.251 127.573C534.974 135.584 529.652 142.594 522.816 147.904C515.981 153.214 507.872 156.637 499.3 157.832C490.728 159.026 481.992 157.951 473.966 154.712C465.939 151.474 458.903 146.186 453.56 139.377L407.631 175.416Z" fill="white" stroke="black" stroke-width="4" mask="url(#path-23-inside-3_202_16461)"/>
<path d="M343.366 137.738C343.755 137.83 344.133 137.917 344.5 138C356.9 140.8 369.333 159.833 374 169C373.861 167.792 373.714 166.6 373.56 165.422C384.886 184.108 406.18 221.951 405 231L402 240.5C397.754 225.271 387.538 193.884 377.252 176.72C397.824 236.125 389.919 255.04 388 256C386.4 256.8 368.333 254.667 359.5 253.5C359.848 251.061 355.163 237.821 351.856 229.05C353.169 235.138 352.897 246.17 352.5 252C341.124 243.927 315.694 246.458 301.533 249.248C300.838 244.612 300.743 239.624 301.4 234.274C321.716 228.837 333.901 213.541 340.275 195.705C344.199 199.8 361 191.248 361 174.5C361 161.152 350.968 170.932 344.476 179.337C346.768 165.625 346.305 151.717 344 140.5C343.81 139.575 343.598 138.654 343.366 137.738Z" fill="#F8F5EF"/>
<path d="M226.332 143.53C229.322 141.924 232.21 140.258 234.996 138.546L234.5 140.5C228.269 167.056 226.475 218.202 261.704 232.504C263.037 236.057 264.295 240.062 265.154 244.103C261.129 243.337 258.233 242.744 257.5 242.5C255.1 241.7 251.833 237.5 250.5 235.5V240C239.7 238.4 229 232.333 225 229.5C221.8 225.9 220.333 213.333 220 207.5C218 209.9 215.167 220.5 214 225.5C205.6 224.7 194.5 218.833 190 216C193.117 200.068 212.952 165.245 226.332 143.53Z" fill="#F8F5EF"/>
<path d="M343.366 137.738C343.755 137.83 344.133 137.917 344.5 138C356.9 140.8 369.333 159.833 374 169C373.861 167.792 373.714 166.6 373.56 165.422C384.886 184.108 406.18 221.951 405 231L402 240.5C397.754 225.271 387.538 193.884 377.252 176.72C397.824 236.125 389.919 255.04 388 256C386.4 256.8 368.333 254.667 359.5 253.5C359.848 251.061 355.163 237.821 351.856 229.05C353.169 235.138 352.897 246.17 352.5 252C341.124 243.927 315.694 246.458 301.533 249.248C300.838 244.612 300.743 239.624 301.4 234.274C321.716 228.837 333.901 213.541 340.275 195.705C344.199 199.8 361 191.248 361 174.5C361 161.152 350.968 170.932 344.476 179.337C346.768 165.625 346.305 151.717 344 140.5C343.81 139.575 343.598 138.654 343.366 137.738Z" stroke="black" stroke-width="2"/>
<path d="M226.332 143.53C229.322 141.924 232.21 140.258 234.996 138.546L234.5 140.5C228.269 167.056 226.475 218.202 261.704 232.504C263.037 236.057 264.295 240.062 265.154 244.103C261.129 243.337 258.233 242.744 257.5 242.5C255.1 241.7 251.833 237.5 250.5 235.5V240C239.7 238.4 229 232.333 225 229.5C221.8 225.9 220.333 213.333 220 207.5C218 209.9 215.167 220.5 214 225.5C205.6 224.7 194.5 218.833 190 216C193.117 200.068 212.952 165.245 226.332 143.53Z" stroke="black" stroke-width="2"/>
<path d="M125.5 635.5C124 648.833 122.3 681.2 127.5 704C134 732.5 153 767.5 159.5 765.5C163.388 764.304 160.121 757.921 156.225 750.309C153.607 745.194 150.706 739.524 149.5 734.5C148.712 731.218 148.062 727.866 147.605 724.545C150.738 727.986 153.405 723.058 154.5 719.5C159.702 706.867 151.703 678.444 150.218 673.263L149.836 671.875C148.003 665.071 145.172 656.111 141 644L125.5 635.5Z" fill="#201E25" stroke="black" stroke-width="2"/>
<path d="M154.5 719.5C153.405 723.058 150.738 727.986 147.605 724.545C146.32 715.22 146.55 706.137 149.5 699.5" stroke="black" stroke-width="2"/>
<path d="M412.872 208.113C412.379 207.982 411.92 207.78 411.5 207.5C409.211 206.657 406 206.197 406.509 208.876C406.323 208.631 406.152 208.341 406 208C404 203.5 411 199.5 415.5 200C419.1 200.4 415.333 205.5 413 208C412.959 208.037 412.916 208.075 412.872 208.113Z" fill="#201E25" stroke="black" stroke-width="2"/>
<path d="M436.598 197.046C435.479 194.062 434.975 189.5 440 189.5C447 189.5 450.5 193.5 452.5 198C452.501 198.003 452.503 198.006 452.504 198.009C451.562 197.257 450.562 196.584 449.5 196C448.167 194.833 444.1 193.2 438.5 196C437.912 196.294 437.276 196.647 436.598 197.046Z" fill="#201E25" stroke="black" stroke-width="2"/>
<path d="M439.5 212C438.7 205.2 407.5 175.5 392 161.5C408 143.5 425.667 141 432.5 142C436.1 148.4 442.667 189 445.5 208.5L439.5 212Z" fill="#9130F4"/>
<path d="M433.5 210C432.7 203.2 401.5 173.5 386 159.5C402 141.5 419.667 139 426.5 140C430.1 146.4 436.667 187 439.5 206.5L433.5 210Z" stroke="black" stroke-width="2"/>
<path d="M394 178.5C411.6 186.1 421.667 205.333 424.5 214L440 201.5C436.8 180.3 428.333 161 424.5 154C406.1 162.4 396.5 173.833 394 178.5Z" fill="#9130F4"/>
<mask id="mask0_202_16461" style="mask-type:alpha" maskUnits="userSpaceOnUse" x="388" y="152" width="50" height="64">
<path d="M390 178.5C407.6 186.1 417.667 205.333 420.5 214L436 201.5C432.8 180.3 424.333 161 420.5 154C402.1 162.4 392.5 173.833 390 178.5Z" fill="#D9D9D9" stroke="black" stroke-width="2"/>
</mask>
<g mask="url(#mask0_202_16461)">
<path d="M390 178.5C407.6 186.1 417.667 205.333 420.5 214L436 201.5C432.8 180.3 424.333 161 420.5 154C402.1 162.4 392.5 173.833 390 178.5Z" stroke="black" stroke-width="2"/>
<path d="M426.5 211.5C422.466 204.207 414.155 189.518 411.091 185.266C410.888 185.002 410.691 184.747 410.5 184.5C410.666 184.693 410.864 184.951 411.091 185.266C416.924 192.839 427.613 207.067 428 209L426.5 211.5Z" fill="#185832"/>
<path d="M432 206.5C431.6 204.5 421.833 182.333 417 171.5C419 173.1 429.5 194.167 434.5 204.5L432 206.5Z" fill="#185832"/>
<path d="M436 204.5C436 202.9 428 179.5 424 168C425.2 169.2 433.833 191.5 438 202.5C437.333 203.833 436 206.1 436 204.5Z" fill="#185832"/>
</g>
<path d="M426 213.5C418.8 218.3 411.667 215.5 409 213.5C403.4 205.9 408.333 206.333 411.5 207.5C417.5 211.5 431.5 199.5 438.5 196C444.1 193.2 448.167 194.833 449.5 196C469.5 207 467.5 249.5 470.5 255.5C472.9 260.3 475.833 272.5 477 278C473.333 281.333 466.3 286 467.5 278C468.7 270 462 258.667 458.5 254" stroke="black" stroke-width="2"/>
<path d="M477 278C475.833 272.5 472.9 260.3 470.5 255.5C469.717 253.934 469.274 249.882 468.693 244.552C467.045 229.461 464.28 204.129 449.5 196C448.167 194.833 444.1 193.2 438.5 196C436.626 196.937 434.252 198.482 431.663 200.167C424.579 204.777 415.894 210.43 411.5 207.5C408.333 206.333 403.4 205.9 409 213.5C409.129 213.597 409.269 213.696 409.419 213.796C409.265 216.131 409.674 220.019 412.157 222.333C411.855 225.475 412.759 230.035 418 232C419.81 232.679 421.825 233.051 423.894 233.173C424.781 236.647 427.125 241.175 432 241.5C435.318 241.721 439.321 241.649 443.013 241.196C446.854 248.004 451.732 253.493 458.5 254C462 258.667 468.7 270 467.5 278C466.3 286 473.333 281.333 477 278Z" fill="#201E25" stroke="black" stroke-width="2"/>
<path d="M435 220C430 225.5 417.5 226 413 223C409.787 220.858 409.256 216.432 409.416 213.847" stroke="black" stroke-width="2"/>
<path d="M441.368 226.5C441.455 227.031 441.348 227.536 441 228C438 232 426 235 418 232C412.705 230.014 411.836 225.382 412.166 222.237" stroke="black" stroke-width="2"/>
<path d="M247 267C246.6 265 244.5 264.5 243.5 264.5L241.5 270L247 267Z" fill="#D9D9D9" stroke="black" stroke-width="2"/>
<path d="M249 265.5C249 256.7 257 257.167 261 258.5C261 283 204.4 407.1 200 445.5C195.6 483.9 144.5 643.5 142 645C139.5 646.5 130.5 644 126 643C121.5 642 118.5 634.5 118.5 634.5C84.5 579.5 139.5 466.5 142 407.5C144.5 348.5 183.5 279.5 207 277C225.8 275 242.833 268.5 249 265.5Z" fill="#335CF7"/>
<path d="M350 296C349.2 286.4 339.667 282 335 281C334 303.167 332.6 359.5 335 407.5C338 467.5 432 514.5 451 517C470 519.5 482 474.5 494 422C503.6 380 487 305.833 477.5 274C470.7 271.6 464.333 277.667 462 281C464 303.5 451.5 347.5 442 362.5C434.4 374.5 422.833 402.167 418 414.5C415.6 402.1 403.667 381.333 398 372.5C378.5 290.5 351 308 350 296Z" fill="#335CF7"/>
<path d="M249 265.5C249 256.7 257 257.167 261 258.5C261 283 204.4 407.1 200 445.5C195.6 483.9 144.5 643.5 142 645C139.5 646.5 130.5 644 126 643C121.5 642 118.5 634.5 118.5 634.5C84.5 579.5 139.5 466.5 142 407.5C144.5 348.5 183.5 279.5 207 277C225.8 275 242.833 268.5 249 265.5Z" stroke="black" stroke-width="2"/>
<path d="M350 296C349.2 286.4 339.667 282 335 281C334 303.167 332.6 359.5 335 407.5C338 467.5 432 514.5 451 517C470 519.5 482 474.5 494 422C503.6 380 487 305.833 477.5 274C470.7 271.6 464.333 277.667 462 281C464 303.5 451.5 347.5 442 362.5C434.4 374.5 422.833 402.167 418 414.5C415.6 402.1 403.667 381.333 398 372.5C378.5 290.5 351 308 350 296Z" stroke="black" stroke-width="2"/>
<path d="M173 583.5C172.2 460.3 222.333 319.5 247.5 264.5C243.5 264.5 235.167 268.5 231.5 270.5C223 276.5 194 374.5 182 427.5C172.4 469.9 165 549.167 162.5 583.5H173Z" fill="#CCFAA9" stroke="black" stroke-width="2"/>
<path d="M169 583.5C168.2 460.3 218.333 319.5 243.5 264.5C239.5 264.5 231.167 268.5 227.5 270.5C219 276.5 190 374.5 178 427.5C168.4 469.9 161 549.167 158.5 583.5H169Z" stroke="black" stroke-width="2"/>
<path d="M196.5 581C172.5 575.8 155.167 576.833 149.5 578C149.5 606.5 160.5 631.5 168 637.5C174 642.3 184.167 640.833 188.5 639.5C184.5 632.3 192.167 597.5 196.5 581Z" fill="#CCFAA9" stroke="black" stroke-width="2"/>
<path d="M192.5 581C168.5 575.8 151.167 576.833 145.5 578C145.5 606.5 156.5 631.5 164 637.5C170 642.3 180.167 640.833 184.5 639.5C180.5 632.3 188.167 597.5 192.5 581Z" stroke="black" stroke-width="2"/>
<path d="M385 575.5C377.5 582 353.167 584.833 347 585L343 556.5C343.5 544.833 343.7 520.4 350.5 516C359 510.5 419 497.5 432.5 501C446 504.5 445.698 511.633 438.5 525C431.5 538 400.51 562.058 385 575.5Z" fill="#41138A" stroke="black" stroke-width="2"/>
<mask id="mask1_202_16461" style="mask-type:alpha" maskUnits="userSpaceOnUse" x="41" y="138" width="583" height="604">
<path d="M41 138H624V450.5C624 611.491 493.491 742 332.5 742V742C171.509 742 41 611.491 41 450.5V138Z" fill="#D9D9D9"/>
</mask>
<g mask="url(#mask1_202_16461)">
<path d="M369.627 575.43C346.548 529.463 346.548 513.646 345.545 508.209L276.809 528.969L250.719 754.851L312.431 773.633C342.702 773.798 405.35 768.493 413.779 745.954C424.315 717.781 392.707 621.398 369.627 575.43Z" fill="#4F71E9" stroke="black" stroke-width="2"/>
<path d="M165.427 675.768C173.053 615.664 198.039 565.71 209.578 548.245C236.002 542.808 287.847 534.109 283.833 542.808C278.816 553.682 286.843 578.396 288.85 586.304C290.857 594.213 286.843 597.673 279.819 602.615C272.795 607.558 270.788 631.777 270.287 665.388C269.885 692.276 273.464 746.119 275.304 769.679H238.678C211.084 763.418 157.801 735.871 165.427 675.768Z" fill="#4F71E9" stroke="black" stroke-width="2"/>
</g>
<path d="M183.5 479.5C195.1 441.1 213.833 388.167 211.5 360L254 267.5L341 288L374 354C377 433.5 431 492 440 498.5C449 505 455.5 506 427.5 540.5C403.881 569.602 374.67 581.5 372.5 581.5C372 581.5 373 581.5 374 581C395.513 570.244 442 526 440 511C438 496 375 500 307.5 542.5C240 585 191 576.5 173 568.5C155 560.5 169 527.5 183.5 479.5Z" fill="#643DF7"/>
<path d="M211.5 360C213.833 388.167 195.1 441.1 183.5 479.5C169 527.5 155 560.5 173 568.5C191 576.5 240 585 307.5 542.5C375 500 438 496 440 511C442 526 395.513 570.244 374 581C373 581.5 372 581.5 372.5 581.5C374.67 581.5 403.881 569.602 427.5 540.5C455.5 506 449 505 440 498.5C431 492 377 433.5 374 354" stroke="black" stroke-width="2"/>
<path d="M341.277 288.939C341.175 289.259 340.893 289.621 340.238 289.968C339.578 290.317 338.625 290.603 337.361 290.794C334.838 291.175 331.304 291.144 326.982 290.697C318.356 289.805 306.804 287.276 294.384 283.311C281.965 279.345 271.085 274.712 263.538 270.439C259.757 268.299 256.859 266.276 255.024 264.503C254.104 263.616 253.493 262.83 253.158 262.163C252.825 261.501 252.805 261.043 252.907 260.723C253.009 260.403 253.291 260.041 253.946 259.694C254.605 259.345 255.559 259.059 256.823 258.869C259.346 258.488 262.88 258.518 267.201 258.965C275.828 259.857 287.38 262.386 299.799 266.351C312.219 270.317 323.099 274.951 330.646 279.223C334.427 281.363 337.324 283.386 339.16 285.159C340.08 286.047 340.691 286.832 341.026 287.499C341.359 288.161 341.379 288.619 341.277 288.939Z" fill="#41138A" stroke="black" stroke-width="2"/>
<path d="M234.996 138.546C262.155 121.865 279.654 100.867 287.184 88.9453C293.975 122.389 327.484 133.977 343.366 137.738C343.598 138.654 343.81 139.575 344 140.5C346.305 151.717 346.768 165.625 344.476 179.337C350.968 170.932 361 161.152 361 174.5C361 191.248 344.199 199.8 340.275 195.705C333.901 213.541 321.716 228.837 301.4 234.274C297.696 264.449 317.889 283.088 334.963 292.02C326.306 292.418 310.966 289.655 294.08 284.263C280.224 279.839 268.243 274.576 260.619 269.879C261.931 267.888 263.247 265.602 264.5 263C268.354 254.996 265.305 242.103 261.704 232.504C226.475 218.202 228.269 167.056 234.5 140.5L234.996 138.546Z" fill="#201E25" stroke="black" stroke-width="2"/>
<path d="M320.099 78.4881L317.693 81.0267L321.077 80.1437L321.539 80.0232C334.988 82.5244 363.866 102.564 372.351 163.938C369.93 159.826 366.67 154.949 362.916 150.47C357.654 144.191 351.263 138.502 344.72 137.025C337.096 135.303 324.637 131.638 313.239 124.184C301.855 116.738 291.575 105.546 288.164 88.7465L287.668 86.3059L286.338 88.4115C278.079 101.489 257.641 125.684 225.459 142.863C225.297 132.016 227.37 116.928 233.984 104.407C240.899 91.3167 252.743 81.0664 272.294 81.2991L274.871 81.3298L272.989 79.569C268.598 75.4602 266 70.1996 266 64.5C266 51.7278 279.199 41 296 41C312.801 41 326 51.7278 326 64.5C326 69.713 323.827 74.5556 320.099 78.4881Z" fill="#F8F5EF" stroke="black" stroke-width="2"/>
<path d="M169 555.5C163.8 556.7 171.167 565 175.5 569C189 576 226.5 574.5 206.5 574C186.5 573.5 175.5 554 169 555.5Z" fill="#41138A"/>
<path d="M175.5 569.5C171.167 565.5 163.8 556.7 169 555.5C175.5 554 188.5 574.5 208.5 575" stroke="black" stroke-width="2"/>
<defs>
<filter id="filter0_f_202_16461" x="0" y="126" width="620" height="727" filterUnits="userSpaceOnUse" color-interpolation-filters="sRGB">
<feFlood flood-opacity="0" result="BackgroundImageFix"/>
<feBlend mode="normal" in="SourceGraphic" in2="BackgroundImageFix" result="shape"/>
<feGaussianBlur stdDeviation="45" result="effect1_foregroundBlur_202_16461"/>
</filter>
<linearGradient id="paint0_linear_202_16461" x1="311.517" y1="125.313" x2="353.871" y2="829.497" gradientUnits="userSpaceOnUse">
<stop stop-color="#423EE0"/>
<stop offset="1" stop-color="#812DE2"/>
</linearGradient>
<linearGradient id="paint1_linear_202_16461" x1="1083.54" y1="496.002" x2="1112.47" y2="1160.36" gradientUnits="userSpaceOnUse">
<stop stop-color="#9C2CF3"/>
<stop offset="1" stop-color="#3A49F9"/>
</linearGradient>
</defs>
</svg>
